<?xml version="1.0" standalone="no"?>
<!DOCTYPE svg PUBLIC "-//W3C//DTD SVG 20010904//EN"
 "http://www.w3.org/TR/2001/REC-SVG-20010904/DTD/svg10.dtd">
<svg version="1.0" xmlns="http://www.w3.org/2000/svg"
 width="512.000000pt" height="512.000000pt" viewBox="0 0 512.000000 512.000000"
 preserveAspectRatio="xMidYMid meet">
<metadata>
Created by potrace 1.14, written by Peter Selinger 2001-2017
</metadata>
<g transform="translate(0.000000,512.000000) scale(0.100000,-0.100000)"
fill="#000000" stroke="none">
<path d="M2339 4466 c-2 -2 -41 -7 -86 -10 -45 -4 -90 -8 -100 -10 -10 -2 -43
-7 -73 -11 -68 -9 -227 -48 -300 -73 -124 -44 -261 -120 -368 -205 -178 -140
-322 -396 -347 -615 -6 -49 -6 -210 -1 -242 3 -14 7 -43 11 -65 31 -217 191
-446 415 -595 218 -144 464 -236 938 -351 356 -86 485 -138 576 -233 192 -203
67 -498 -242 -570 -135 -31 -355 -7 -468 52 -159 82 -268 250 -306 470 l-12
72 -81 -5 c-173 -10 -243 -14 -310 -19 -38 -3 -117 -8 -175 -11 -58 -3 -130
-8 -160 -10 -93 -7 -263 -18 -295 -19 -29 -1 -30 -2 -27 -46 10 -138 74 -363
139 -495 33 -65 118 -204 132 -215 3 -3 22 -25 42 -50 50 -62 102 -114 146
-147 21 -15 40 -30 43 -33 9 -11 75 -48 145 -83 109 -55 293 -111 430 -131 22
-4 65 -11 95 -16 108 -18 238 -25 465 -25 308 0 444 14 647 66 512 130 854
480 944 964 10 52 11 308 2 362 -35 205 -121 376 -263 518 -179 180 -361 274
-780 404 -65 20 -375 97 -678 169 -242 57 -342 128 -352 249 -12 134 89 245
253 280 61 12 228 12 295 -2 90 -18 194 -77 253 -143 38 -42 89 -152 109 -231
l17 -71 97 5 c98 5 190 11 341 20 47 3 117 7 155 9 80 5 293 17 345 21 19 1
50 3 69 4 l33 1 -6 48 c-25 207 -114 433 -227 579 -53 69 -150 159 -224 209
-40 28 -217 114 -238 118 -7 1 -17 5 -22 8 -16 10 -234 65 -285 72 -25 3 -56
8 -70 11 -14 2 -45 7 -70 10 -51 7 -564 17 -571 11z"/>
</g>
</svg>
